{
  "accessors": [
    {
      "bufferView": 2,
      "componentType": 5126,
      "count": 4225,
      "max": [
        1305.652587890625,
        896.935302734375,
        281.0299072265625
      ],
      "min": [
        -1293.206787109375,
        -1090.427734375,
        1.3436280488967896
      ],
      "type": "VEC3"
    },
    {
      "bufferView": 2,
      "byteOffset": 50700,
      "componentType": 5126,
      "count": 4225,
      "max": [
        0.4523226022720337,
        0.4470219612121582,
        0.9999961853027344
      ],
      "min": [
        -0.4245212972164154,
        -0.47471410036087036,
        0.8738213181495667
      ],
      "type": "VEC3"
    },
    {
      "bufferView": 1,
      "componentType": 5126,
      "count": 4225,
      "max": [
        1.0,
        1.0
      ],
      "min": [
        0.0,
        0.0
      ],
      "type": "VEC2"
    },
    {
      "bufferView": 0,
      "componentType": 5125,
      "count": 24576,
      "type": "SCALAR"
    }
  ],
  "asset": {
    "extras": {
      "author": "Nate Loper   🗺️ ⛏🏺 (https://sketchfab.com/arizonaguide)",
      "license": "CC-BY-4.0 (http://creativecommons.org/licenses/by/4.0/)",
      "source": "https://sketchfab.com/3d-models/lunar-volcanic-crater-on-the-moon-3d-86532242a87f434180b5268c70fe33bc",
      "title": "Lunar Volcanic Crater on the Moon 3D"
    },
    "generator": "Sketchfab-12.62.1",
    "version": "2.0"
  },
  "bufferViews": [
    {
      "buffer": 0,
      "byteLength": 98304,
      "name": "floatBufferViews",
      "target": 34963
    },
    {
      "buffer": 0,
      "byteLength": 33800,
      "byteOffset": 98304,
      "byteStride": 8,
      "name": "floatBufferViews",
      "target": 34962
    },
    {
      "buffer": 0,
      "byteLength": 101400,
      "byteOffset": 132104,
      "byteStride": 12,
      "name": "floatBufferViews",
      "target": 34962
    }
  ],
  "buffers": [
    {
      "byteLength": 233504,
      "uri": "scene.bin"
    }
  ],
  "images": [
    {
      "uri": "textures/rastMat.001_baseColor.png"
    }
  ],
  "materials": [
    {
      "doubleSided": true,
      "name": "rastMat.001",
      "pbrMetallicRoughness": {
        "baseColorTexture": {
          "index": 0
        },
        "metallicFactor": 0.0,
        "roughnessFactor": 0.8063508326896291
      }
    }
  ],
  "meshes": [
    {
      "name": "Object_0",
      "primitives": [
        {
          "attributes": {
            "NORMAL": 1,
            "POSITION": 0,
            "TEXCOORD_0": 2
          },
          "indices": 3,
          "material": 0,
          "mode": 4
        }
      ]
    }
  ],
  "nodes": [
    {
      "children": [
        1
      ],
      "matrix": [
        1.0,
        0.0,
        0.0,
        0.0,
        0.0,
        2.220446049250313e-16,
        -1.0,
        0.0,
        0.0,
        1.0,
        2.220446049250313e-16,
        0.0,
        0.0,
        0.0,
        0.0,
        1.0
      ],
      "name": "Sketchfab_model"
    },
    {
      "children": [
        2
      ],
      "name": "SP Crater Volcano.obj.cleaner.materialmerger.gles"
    },
    {
      "mesh": 0,
      "name": "Object_2"
    }
  ],
  "samplers": [
    {
      "magFilter": 9729,
      "minFilter": 9987,
      "wrapS": 10497,
      "wrapT": 10497
    }
  ],
  "scene": 0,
  "scenes": [
    {
      "name": "Sketchfab_Scene",
      "nodes": [
        0
      ]
    }
  ],
  "textures": [
    {
      "sampler": 0,
      "source": 0
    }
  ]
}
